PathFileType	4	(X/Y/Z)	4_1_41_p0_0-282.trc
DataRate	CameraRate	NumFrames	NumMarkers	Units	OrigDataRate	OrigDataStartFrame	OrigNumFrames
60.0	60.0	5	27	m	60.0	247	283
Frame#	Time	RHip			RKnee			RAnkle			RBigToe			RSmallToe			RHeel			LHip			LKnee			LAnkle			LBigToe			LSmallToe			LHeel			Neck			Head			Nose			RShoulder			RElbow			RWrist			RThumb			RIndex			RPinky			LShoulder			LElbow			LWrist			LThumb			LIndex			LPinky			
		X1	Y1	Z1	X2	Y2	Z2	X3	Y3	Z3	X4	Y4	Z4	X5	Y5	Z5	X6	Y6	Z6	X7	Y7	Z7	X8	Y8	Z8	X9	Y9	Z9	X10	Y10	Z10	X11	Y11	Z11	X12	Y12	Z12	X13	Y13	Z13	X14	Y14	Z14	X15	Y15	Z15	X16	Y16	Z16	X17	Y17	Z17	X18	Y18	Z18	X19	Y19	Z19	X20	Y20	Z20	X21	Y21	Z21	X22	Y22	Z22	X23	Y23	Z23	X24	Y24	Z24	X25	Y25	Z25	X26	Y26	Z26	X27	Y27	Z27	
247	4.116666666666666	0.36717822927683635	0.42508108063939737	0.7313864247915154	0.36130727252943573	0.465681353409121	1.1760709284318944	0.36181514858416863	0.5100270544329076	1.5946448659955248	0.37635320288561486	0.2832533502796825	1.5847400048320779	0.44074403017137026	0.3718119732250686	1.6301445176265899	0.3507134685501119	0.5380618030162362	1.6438284056027452	0.14235517013295373	0.42767159577414243	0.7464048354588674	0.17355621239305605	0.43113804642488285	1.1535374403483838	0.1448501676385998	0.48882136321074793	1.5898954617569088	0.17044762653338458	0.3140021815103238	1.625165536777507	0.1160952520184485	0.3157561228678187	1.5930851845873604	0.16769034720195086	0.5658802574726466	1.6779351289570543	0.2249011508502164	0.44657522132093375	0.14843906637347898	0.23444129693130664	0.39491612146612054	-0.11774498123401592	0.217958435033223	0.323425151986336	0.026411042201521087	0.39964505005317025	0.39409646768881434	0.2342827807766685	0.47443495001736474	0.32953010170998975	0.5034438140410615	0.32638224205642036	0.2005277044304559	0.6841925249226567	0.22347804717161016	0.14449536931288917	0.7501033341202769	0.2261425845899908	0.15848031530356124	0.7873904833254034	0.2521733241135572	0.2327351913512398	0.8387329374605641	0.05039343651445685	0.4635686497109722	0.2614412949672158	0.023075296834330388	0.39853325875475065	0.5479777903076973	0.14138734911585082	0.19390822688296475	0.681835772160747	0.22594578349066877	0.09591051650864416	0.7052671045501769	0.22106003431306587	0.0807845725030634	0.722437731346752	0.18773490532907558	0.1166980101791655	0.7738908339807242
248	4.133333333333334	0.3631776166047752	0.4223170850559055	0.7385976543125184	0.36144553850090744	0.46415850121954244	1.1791322594495834	0.3613699781828627	0.5117100705707678	1.5912667100522775	0.3763069092957881	0.28305368057103797	1.5846767249238993	0.43945111925339897	0.3705439586335771	1.6247442043826283	0.3507240896634197	0.5382332975368428	1.6441161510167044	0.1363679656116694	0.4235444151037138	0.7408314221071521	0.17273809987735966	0.42989331927533975	1.1480415660510206	0.14488930862124705	0.4888692226341702	1.5897845124987298	0.17497305941230606	0.3004728638765433	1.6153899094591853	0.12089276015880629	0.3024270465540374	1.5839226919879132	0.1714129942433302	0.5704121976760199	1.67599461279698	0.22083012598962729	0.4453669976941165	0.14850712976053632	0.23433193166469712	0.39516459188556774	-0.11771450048928253	0.2179575859210178	0.32356652429086863	0.02639897131931903	0.3995124650054203	0.3938919641145976	0.23424056869381793	0.4702551324571525	0.31902940800147095	0.5006508845456151	0.3197176547922563	0.2015007949355838	0.6999156276403928	0.21676263704398982	0.13872656201018546	0.7469083126081181	0.20500375057230655	0.1473524188100081	0.7800503742074493	0.2480357574038947	0.21216352713194775	0.8309947050231316	0.04559776404804815	0.475796062261651	0.26395242429840066	0.020672696421298382	0.38813755004044304	0.5371870513371586	0.14642882548439234	0.1835672139133269	0.6815511278524069	0.23689161281391558	0.06569986871679064	0.6810286745561676	0.24019281169462267	0.040920822266196644	0.7000931390283047	0.20861594113276616	0.11306597140124272	0.7575264928832446
249	4.15	0.3631360637171947	0.4227830822489246	0.7385398456029918	0.3657218849454832	0.4650192247145471	1.1793956057634307	0.36132802423069715	0.511553008408942	1.5911077959282454	0.3763081778183158	0.28300561073195196	1.584590353559797	0.4393972512032373	0.37043912481776675	1.6246036396999732	0.348332868503669	0.5365000773475955	1.6436145928074095	0.13667907748633965	0.42531750412324987	0.742140391219927	0.17192595636623298	0.4288640202187505	1.1426811494749531	0.14486011947400498	0.4888948020495476	1.5895583912683835	0.17184778214608798	0.2880960041595761	1.6069154813593605	0.12092286505204768	0.3025339030800464	1.5837312448743903	0.16743933396075336	0.5559745290995884	1.6668246241803386	0.220768676112962	0.44541702792860477	0.14847443908085825	0.22632034678192178	0.4066445434395306	-0.11647114373805299	0.21811160497098844	0.3234863271676592	0.026412229515325764	0.3956432173055415	0.3921389222385011	0.234062086483673	0.46993852051715623	0.31895310097616664	0.500695843835292	0.31224678085197305	0.18971236499708072	0.6926036295256465	0.20689868736496322	0.14318765132096264	0.7493272106412756	0.1929063682127797	0.13628938194279946	0.7646153767056703	0.24605334657216404	0.20357495270944898	0.8287885932430685	0.050510873567199153	0.46392036779445833	0.25771512922554396	0.02103222508720675	0.3880641646710162	0.5330901265610869	0.15776191150645724	0.18465352380428007	0.6781693755456559	0.24106006921900586	0.05455817169358016	0.6734224424667452	0.24244927054972806	0.05113628771922468	0.699901818025148	0.21725236356505132	0.1246541995323621	0.7539577661725401
250	4.166666666666667	0.3583592368351439	0.43749558910734176	0.7490390809229976	0.3612763513120059	0.48094132078064433	1.1839247652261415	0.36135215779665386	0.5116188198885323	1.591168495121205	0.3762927025209723	0.2832987513025754	1.5847898329384926	0.43939600809949414	0.37071562286925486	1.624809216390901	0.3483541162343701	0.5367340414770497	1.643806854278699	0.14084041407114484	0.43967989777340655	0.7574321196279764	0.17178534553171113	0.4286181339948782	1.1422544451806407	0.14380308016733256	0.4875492226781154	1.5836414445829583	0.16950186594853595	0.31425904148088346	1.6297493463688555	0.11606220012830705	0.31589285661767297	1.593177547578246	0.16743907684852616	0.5560903802127536	1.6668887373778125	0.22070889302621927	0.44554465911635854	0.1484809951942738	0.22621190981832276	0.4069763111780747	-0.11645491277838774	0.21800553921176496	0.3235020164941905	0.026376978879285563	0.39970255217871786	0.4027319964072312	0.23583358653395867	0.45952189365102514	0.3197231481376561	0.5092311444434136	0.3063923368954697	0.16940002532886034	0.6891286229615229	0.20320563939742148	0.1418974355371444	0.7456339147078211	0.19121726386906396	0.13699764852217866	0.7602580748621286	0.22315085156490902	0.14400864357766746	0.7927733162307221	0.050487552104567526	0.46381362638488643	0.2577676788846219	0.021146664103493248	0.3892699867223605	0.5332875665869299	0.1577482565349072	0.18377298047247975	0.6704998230220179	0.24693730783933626	0.06324923872844825	0.6639189535380356	0.25037989161030283	0.0606621233248171	0.7033779982601658	0.2210808166859219	0.12465944790382122	0.7507354355970424
251	4.183333333333334	0.3623918046723067	0.42307683698802423	0.74703440374312	0.36135579728642964	0.480825824814678	1.1838196872002298	0.3613544619374218	0.5115305623177958	1.5910878158455293	0.37628601093187736	0.2831730503056834	1.5846851406442508	0.4393868106385983	0.3705818823220773	1.6247200598571476	0.3496606288368424	0.538041649131423	1.6493729126039138	0.13782132041071837	0.43422280921682904	0.7709529966272403	0.17194523831528	0.4287309411961159	1.1423931305040822	0.144767989079576	0.48708501334219984	1.5787947207268516	0.17038290587268032	0.3139421108697337	1.6250499147187942	0.11616352328596849	0.316025713128789	1.5929058506862037	0.1676836669862902	0.5658937465778426	1.6777262873123444	0.22068754035246413	0.4456359022054915	0.14849701242950938	0.226210772989647	0.40690360147089616	-0.11643359823082672	0.21800697822713455	0.3235248461289602	0.026380721495055683	0.399319959529641	0.4034103753113479	0.23265290578244718	0.45230020940021587	0.323627104452519	0.5034692876583731	0.30282611599632986	0.1819200491590056	0.6865633461091145	0.1988568219495561	0.1349739217464245	0.7265354478248425	0.1902930054635662	0.13583707354544924	0.7619668866230049	0.21776797355069982	0.1540421570914109	0.7850754586021387	0.050531669849696315	0.4639729861555222	0.2575658251609645	0.01877852893999156	0.3762005473076908	0.5258132944752684	0.16276741227755553	0.17237567473444051	0.6626367250709055	0.25344285027062685	0.06332032345024476	0.6556336831077142	0.2506557858295892	0.061806616418926534	0.706221439664658	0.22131796504755744	0.1276185731940289	0.7478977178540351
